<svg class="gn-logo-icon" xmlns="http://www.w3.org/2000/svg" width="144.005" height="16.112" viewBox="0 0 144.005 16.112" fill="white">
  <path d="M121.827,124.585l-8.817-8.817a.48.48,0,0,0-.677,0l-8.817,8.817H97.8L111.28,111.1a1.969,1.969,0,0,1,2.783,0l13.485,13.485h-5.722" transform="translate(-97.795 -109.161)"></path>
  <path d="M684.741,102.606h4.143v14.77h-4.143v-14.77" transform="translate(-633.42 -101.936)"></path>
  <path d="M989.259,117.377V106.248h-9.672v-3.641h23.644v3.641H993.4v11.129h-4.143" transform="translate(-902.484 -101.936)"></path>
  <path d="M1489.874,98.506a17.331,17.331,0,0,0-3.022.2,7.184,7.184,0,0,0-2.556.858,3.929,3.929,0,0,0-2.083,3.373,3.693,3.693,0,0,0,.493,1.9,4.308,4.308,0,0,0,1.535,1.54,7.094,7.094,0,0,0,2.572.885,22.531,22.531,0,0,0,6.132,0,7.089,7.089,0,0,0,2.571-.884,4.307,4.307,0,0,0,1.536-1.541,3.694,3.694,0,0,0,.492-1.9,3.929,3.929,0,0,0-2.082-3.372,7.2,7.2,0,0,0-2.557-.859,17.447,17.447,0,0,0-3.031-.2m0,12.541a25.257,25.257,0,0,1-4.061-.257,10.566,10.566,0,0,1-3.844-1.356,7.835,7.835,0,0,1-2.783-2.823,7.312,7.312,0,0,1-.961-3.719,7.571,7.571,0,0,1,3.834-6.4,10.663,10.663,0,0,1,3.807-1.311,32.433,32.433,0,0,1,8.02,0,10.668,10.668,0,0,1,3.807,1.311,7.572,7.572,0,0,1,3.833,6.4,7.311,7.311,0,0,1-.961,3.719,7.84,7.84,0,0,1-2.783,2.823,10.564,10.564,0,0,1-3.844,1.356,25.255,25.255,0,0,1-4.061.257Z" transform="translate(-1357.525 -94.935)"></path>
</svg>
