<svg fill="#fff" class="prefix__prefix__prefix__gn-logo-icon" xmlns="http://www.w3.org/2000/svg" width="144.005" height="16.112"><path d="M24.032 15.424l-8.817-8.817a.48.48 0 00-.677 0l-8.817 8.817H.005l13.48-13.485a1.969 1.969 0 012.783 0l13.485 13.485h-5.722M51.321.67h4.143v14.77h-4.143V.67m35.454 14.771V4.312h-9.672V.671h23.644v3.641h-9.831v11.129h-4.143m45.576-11.87a17.331 17.331 0 00-3.022.2 7.184 7.184 0 00-2.556.858 3.929 3.929 0 00-2.083 3.373 3.693 3.693 0 00.493 1.9 4.308 4.308 0 001.535 1.54 7.094 7.094 0 002.572.885 22.531 22.531 0 006.132 0 7.089 7.089 0 002.571-.884 4.307 4.307 0 001.536-1.541 3.694 3.694 0 00.492-1.9 3.929 3.929 0 00-2.082-3.372 7.2 7.2 0 00-2.557-.859 17.447 17.447 0 00-3.031-.2m0 12.541a25.257 25.257 0 01-4.061-.257 10.566 10.566 0 01-3.844-1.356 7.835 7.835 0 01-2.783-2.823 7.312 7.312 0 01-.961-3.719 7.571 7.571 0 013.834-6.4 10.663 10.663 0 013.807-1.311 32.433 32.433 0 018.02 0 10.668 10.668 0 013.807 1.311 7.572 7.572 0 013.833 6.4 7.311 7.311 0 01-.961 3.719 7.84 7.84 0 01-2.783 2.823 10.564 10.564 0 01-3.844 1.356 25.255 25.255 0 01-4.061.257z"/></svg>