<?xml version="1.0" standalone="no"?><!DOCTYPE svg PUBLIC "-//W3C//DTD SVG 1.1//EN" "http://www.w3.org/Graphics/SVG/1.1/DTD/svg11.dtd"><svg fill="black" t="1756173069313" class="icon" viewBox="0 0 1024 1024" version="1.1" xmlns="http://www.w3.org/2000/svg" p-id="13732" xmlns:xlink="http://www.w3.org/1999/xlink" width="200" height="200"><path d="M550.257778 199.281778C760.149333 199.281778 930.929778 316.472889 930.929778 460.487111 930.929778 604.501333 760.149333 721.664 550.257778 721.664 340.366222 721.664 169.614222 604.501333 169.614222 460.487111 169.614222 316.472889 340.366222 199.281778 550.257778 199.281778M550.257778 142.421333C308.622222 142.421333 112.725333 284.814222 112.725333 460.487111 112.725333 636.16 308.622222 778.552889 550.257778 778.552889 791.921778 778.552889 987.818667 636.16 987.818667 460.487111 987.818667 284.814222 791.921778 142.421333 550.257778 142.421333" fill="black" p-id="13733"></path><path d="M890.46873 603.299641C889.517207 616.620982 887.630928 627.506856 884.409023 637.362094 844.466913 759.484242 688.762775 849.302204 506.382222 848.299096 291.39866 847.124614 120.702523 721.602722 121.514242 573.083457 121.734024 537.504398 131.628536 502.91142 150.573075 470.61085 158.520677 457.060136 153.978456 439.632304 140.42774 431.684702 126.877025 423.737101 109.449194 428.279322 101.501592 441.830039 77.596467 482.588439 64.909275 526.945124 64.62632 572.752299 63.617477 757.337734 262.869797 903.858497 506.070386 905.187132 711.224104 906.315492 890.03334 803.169351 938.480498 655.043194 943.297983 640.307356 945.954025 624.979103 947.213047 607.352804 948.332299 591.683294 936.536983 578.073316 920.86747 576.954064 905.197961 575.834812 891.587982 587.630128 890.46873 603.299641L890.46873 603.299641Z" fill="black" p-id="13734"></path><path d="M312.888889 540.444444C319.312898 540.444444 325.488214 539.379664 331.247977 537.41696 353.658351 529.780375 369.777778 508.550411 369.777778 483.555556 369.777778 452.13669 344.307755 426.666667 312.888889 426.666667 281.470023 426.666667 256 452.13669 256 483.555556 256 514.974421 281.470023 540.444444 312.888889 540.444444Z" fill="black" p-id="13735"></path><path d="M512 398.222222C518.42401 398.222222 524.599324 397.15744 530.359088 395.194737 552.769462 387.558152 568.888889 366.32819 568.888889 341.333333 568.888889 309.914468 543.418866 284.444444 512 284.444444 480.581134 284.444444 455.111111 309.914468 455.111111 341.333333 455.111111 372.752199 480.581134 398.222222 512 398.222222Z" fill="black" p-id="13736"></path><path d="M796.444444 455.111111C802.868454 455.111111 809.043769 454.04633 814.803533 452.083627 837.213906 444.447041 853.333333 423.217079 853.333333 398.222222 853.333333 366.803356 827.86331 341.333333 796.444444 341.333333 765.025579 341.333333 739.555556 366.803356 739.555556 398.222222 739.555556 429.641088 765.025579 455.111111 796.444444 455.111111Z" fill="black" p-id="13737"></path><path d="M597.333333 625.777778C603.757343 625.777778 609.932658 624.712997 615.692422 622.750293 638.102795 615.113708 654.222222 593.883745 654.222222 568.888889 654.222222 537.470023 628.752199 512 597.333333 512 565.914468 512 540.444444 537.470023 540.444444 568.888889 540.444444 600.307755 565.914468 625.777778 597.333333 625.777778Z" fill="black" p-id="13738"></path></svg>
