<svg fill="white" class="prefix__icon" viewBox="0 0 1024 1024" xmlns="http://www.w3.org/2000/svg" width="200" height="200"><path d="M512 7.014C232.855 7.014 7.014 232.854 7.014 512S232.854 1016.986 512 1016.986 1016.986 791.146 1016.986 512 789.742 7.014 512 7.014zm0 939.835C272.132 946.85 77.15 751.87 77.15 512S272.133 77.15 512 77.15 946.85 272.133 946.85 512 750.465 946.85 512 946.85z" fill="white"/><path d="M576.526 531.638c1.403-5.61 2.806-12.624 2.806-19.638 0-26.652-15.43-50.499-37.874-63.123v-276.34c0-19.638-15.43-35.069-35.069-35.069s-35.068 15.43-35.068 35.069v276.34C448.877 461.5 433.447 483.945 433.447 512c0 39.277 32.263 72.942 72.942 72.942 7.014 0 14.027-1.402 19.638-2.805l136.066 136.066c7.014 7.013 15.43 9.819 25.25 9.819s18.235-2.806 25.249-9.82c14.027-14.027 14.027-36.47 0-49.095L576.526 531.638z" fill="white"/></svg>
