<?xml version="1.0" standalone="no"?><!DOCTYPE svg PUBLIC "-//W3C//DTD SVG 1.1//EN" "http://www.w3.org/Graphics/SVG/1.1/DTD/svg11.dtd"><svg fill="black" t="1756172939857" class="icon" viewBox="0 0 1024 1024" version="1.1" xmlns="http://www.w3.org/2000/svg" p-id="5146" xmlns:xlink="http://www.w3.org/1999/xlink" width="200" height="200"><path d="M426.666667 42.666667a42.666667 42.666667 0 0 0-42.666667 42.666666v21.333334c0 15.701333 8.533333 29.248 21.162667 36.672 1.472 72.64-14.229333 114.944-33.237334 158.528C349.312 353.664 320 409.514667 320 501.333333c0 85.546667 21.333333 154.666667 21.333333 234.666667 0 51.221333-5.696 74.965333-11.797333 104.170667-15.018667 72.128 41.045333 141.205333 114.773333 141.205333h135.808c73.813333 0 129.92-69.290667 114.773334-141.504C688.597333 810.176 682.666667 787.626667 682.666667 736c0-80 21.333333-144 21.333333-234.666667 0-91.818667-29.802667-143.36-52.16-192.042666-19.157333-41.685333-35.242667-83.968-33.066667-165.973334A42.453333 42.453333 0 0 0 640 106.666667V85.333333a42.666667 42.666667 0 0 0-42.666667-42.666666h-170.666666z m42.218666 106.666666h86.165334a507.306667 507.306667 0 0 0 3.285333 64H464.426667c2.837333-19.349333 4.416-40.618667 4.458666-64z m-19.264 128h121.877334c6.528 22.058667 14.208 41.386667 22.186666 58.709334 14.869333 32.362667 28.864 57.685333 37.525334 90.624h-238.933334c8.725333-36.074667 23.232-64.746667 38.272-99.2 6.72-15.402667 13.226667-32 19.072-50.133334z m-56.96 320h238.954667c-5.994667 42.816-12.949333 86.272-12.949333 138.666667 0 56.938667 7.637333 88.789333 13.589333 117.034667 7.104 33.877333-17.578667 64.341333-52.138667 64.341333h-135.829333c-34.496 0-59.157333-30.357333-52.117333-64.170667 5.909333-28.309333 13.162667-60.821333 13.162666-117.205333 0-51.456-6.72-96.021333-12.672-138.666667z" p-id="5147"></path></svg>
