<svg class="prefix__icon" viewBox="0 0 1024 1024" xmlns="http://www.w3.org/2000/svg" width="200" height="200"><path d="M426.667 42.667A42.667 42.667 0 00384 85.333v21.334c0 15.701 8.533 29.248 21.163 36.672 1.472 72.64-14.23 114.944-33.238 158.528C349.312 353.664 320 409.515 320 501.333 320 586.88 341.333 656 341.333 736c0 51.221-5.696 74.965-11.797 104.17-15.019 72.129 41.045 141.206 114.773 141.206h135.808c73.814 0 129.92-69.29 114.774-141.504-6.294-29.696-12.224-52.245-12.224-103.872 0-80 21.333-144 21.333-234.667 0-91.818-29.803-143.36-52.16-192.042-19.157-41.686-35.243-83.968-33.067-165.974A42.453 42.453 0 00640 106.667V85.333a42.667 42.667 0 00-42.667-42.666H426.667zm42.218 106.666h86.166a507.307 507.307 0 003.285 64h-93.91c2.838-19.349 4.417-40.618 4.46-64zm-19.264 128H571.5c6.528 22.059 14.208 41.387 22.186 58.71 14.87 32.362 28.864 57.685 37.526 90.624H392.277c8.726-36.075 23.232-64.747 38.272-99.2 6.72-15.403 13.227-32 19.072-50.134zm-56.96 320h238.955c-5.995 42.816-12.95 86.272-12.95 138.667 0 56.939 7.638 88.79 13.59 117.035 7.104 33.877-17.579 64.341-52.139 64.341H444.288c-34.496 0-59.157-30.357-52.117-64.17 5.909-28.31 13.162-60.822 13.162-117.206 0-51.456-6.72-96.021-12.672-138.667z"/></svg>