<?xml version="1.0" standalone="no"?><!DOCTYPE svg PUBLIC "-//W3C//DTD SVG 1.1//EN" "http://www.w3.org/Graphics/SVG/1.1/DTD/svg11.dtd"><svg t="1756197819865" class="icon" viewBox="0 0 1024 1024" version="1.1" xmlns="http://www.w3.org/2000/svg" p-id="11013" xmlns:xlink="http://www.w3.org/1999/xlink" width="200" height="200"><path d="M1005.922273 778.430048c-9.503445-13.831007-22.072715-25.02086-36.734646-32.786731 0.960885-12.124132 1.430582-24.049742 1.430582-36.193317 0-55.19509-9.726525-109.207237-28.909423-160.536276-18.526959-49.575092-45.339628-95.313809-79.69304-135.945205-64.528666-76.321246-152.162562-129.668245-248.609171-151.764496 10.119475-17.711384 15.542998-37.860283 15.542998-58.482973 0-65.09967-52.961212-118.060883-118.059859-118.060883-65.09967 0-118.062929 52.962236-118.062929 118.060883 0 20.62269 5.424546 40.773635 15.544021 58.485019-96.447633 22.099321-184.082552 75.454506-248.612241 151.788032-34.353412 40.636512-61.165058 86.380346-79.69304 135.960555C60.883649 600.288812 51.157123 654.305053 51.157123 709.503213c0 12.522198 0.499373 24.808012 1.51961 37.303604-32.265868 18.082844-52.619428 52.277644-52.619428 89.705068 0 56.69935 46.128597 102.827947 102.82897 102.827947L921.112702 939.339832c56.700373 0 102.82897-46.128597 102.82897-102.827947C1023.942695 815.671231 1017.71076 795.5868 1005.922273 778.430048zM123.408681 709.627033c0-213.754339 173.822884-387.656017 387.481032-387.656017 213.656101 0 387.477962 173.875073 387.477962 387.595642 0 8.04728-0.2415 15.808034-0.763386 24.115234L124.171044 733.681892C123.650181 725.393111 123.408681 717.6518 123.408681 709.627033zM465.077318 202.721051c0-25.260314 20.551058-45.810349 45.811372-45.810349 25.25929 0 45.809325 20.550035 45.809325 45.810349 0 25.260314-20.550035 45.810349-45.809325 45.810349C485.628376 248.5314 465.077318 227.980341 465.077318 202.721051zM951.689091 836.509838c0 8.149611-3.184529 15.82236-8.969279 21.60711-5.78475 5.78475-13.4575 8.970302-21.60711 8.970302L102.886275 867.087251c-16.861016 0-30.577413-13.71742-30.577413-30.577413 0-15.014972 11.017938-27.848255 25.76071-30.18651l827.857784 0C940.671153 808.661583 951.689091 821.494866 951.689091 836.509838z" p-id="11014" fill="#ffffff"></path></svg>