<?xml version="1.0" standalone="no"?><!DOCTYPE svg PUBLIC "-//W3C//DTD SVG 1.1//EN" "http://www.w3.org/Graphics/SVG/1.1/DTD/svg11.dtd"><svg fill="white" t="1756173361955" class="icon" viewBox="0 0 1024 1024" version="1.1" xmlns="http://www.w3.org/2000/svg" p-id="18896" xmlns:xlink="http://www.w3.org/1999/xlink" width="300" height="300"><path d="M759.466667 665.6l-494.933333 0c-8.533333 0-17.066667-6.826667-17.066667-17.066667l0-8.533333C247.466667 494.933333 366.933333 375.466667 512 375.466667s264.533333 119.466667 264.533333 264.533333l0 8.533333C776.533333 658.773333 768 665.6 759.466667 665.6zM281.6 631.466667l460.8 0c-5.12-122.88-105.813333-221.866667-230.4-221.866667C387.413333 409.6 286.72 508.586667 281.6 631.466667z" fill="white" p-id="18897"></path><path d="M563.2 409.6l-102.4 0c-10.24 0-17.066667-6.826667-17.066667-17.066667l0-25.6c0-52.906667 30.72-93.866667 68.266667-93.866667s68.266667 40.96 68.266667 93.866667L580.266667 392.533333C580.266667 402.773333 573.44 409.6 563.2 409.6zM477.866667 375.466667l68.266667 0 0-8.533333c0-35.84-18.773333-59.733333-34.133333-59.733333s-34.133333 23.893333-34.133333 59.733333L477.866667 375.466667z" fill="white" p-id="18898"></path><path d="M776.533333 750.933333l-529.066667 0c-10.24 0-17.066667-6.826667-17.066667-17.066667s6.826667-17.066667 17.066667-17.066667l529.066667 0c10.24 0 17.066667 6.826667 17.066667 17.066667S786.773333 750.933333 776.533333 750.933333z" fill="white" p-id="18899"></path></svg>
