<svg fill="#fff" class="prefix__icon" viewBox="0 0 1024 1024" xmlns="http://www.w3.org/2000/svg" width="200" height="200"><path d="M759.467 665.6H264.533c-8.533 0-17.066-6.827-17.066-17.067V640c0-145.067 119.466-264.533 264.533-264.533S776.533 494.933 776.533 640v8.533c0 10.24-8.533 17.067-17.066 17.067zM281.6 631.467h460.8C737.28 508.587 636.587 409.6 512 409.6s-225.28 98.987-230.4 221.867z"/><path d="M563.2 409.6H460.8c-10.24 0-17.067-6.827-17.067-17.067v-25.6c0-52.906 30.72-93.866 68.267-93.866s68.267 40.96 68.267 93.866v25.6c0 10.24-6.827 17.067-17.067 17.067zm-85.333-34.133h68.266v-8.534c0-35.84-18.773-59.733-34.133-59.733s-34.133 23.893-34.133 59.733v8.534zM776.533 750.933H247.467c-10.24 0-17.067-6.826-17.067-17.066s6.827-17.067 17.067-17.067h529.066c10.24 0 17.067 6.827 17.067 17.067s-6.827 17.066-17.067 17.066z"/></svg>