<svg data-name="Layer 1" xmlns="http://www.w3.org/2000/svg" viewBox="0 0 96.56 122.88"><path d="M32.27 47.91c18.55 14.28 25.17 8.65 35.79 3.41 8.14-4 11.33-7.81 21.22-3.8V33h-57v14.91zM8.64 8.64a29.53 29.53 0 0141.74 0c.25.25.5.51.74.77l.77.6-17.73 17.74h34.55l4-13.49A3.42 3.42 0 0174.53 12l16.93-9.5a3.43 3.43 0 013.35 6l-15.74 8.81-3.3 10.44H92a2.19 2.19 0 012.19 2.18v27.82c0 18.07-9.88 32.09-28.31 33.47v25.42h14.35c1.21 0 2.18 1.92 2.18 3.12s-1 3.12-2.18 3.12H44.12c-1.21 0-2.18-1.92-2.18-3.12s1-3.12 2.18-3.12h12.54V91.31c-19-.78-29.61-15-29.61-33.55V34.85L10.11 51.8l-.3-.39c-.38-.35-.76-.7-1.13-1.07a29.53 29.53 0 010-41.74zm37.11 1.1a25.58 25.58 0 00-36 36l1.87-1.87a23 23 0 0132.26-32.26l1.87-1.87zM14.4 41.09l9.6-9.62H10.58a19 19 0 003.82 9.62zM31.47 24l9.62-9.62a19 19 0 00-9.62-3.82V24zm-20.89 3.55h14.19l-10-10a19 19 0 00-4.16 10zm17-2.78V10.58a19 19 0 00-10 4.16l10 10z"/></svg>