<?xml version="1.0" standalone="no"?><!DOCTYPE svg PUBLIC "-//W3C//DTD SVG 1.1//EN" "http://www.w3.org/Graphics/SVG/1.1/DTD/svg11.dtd"><svg t="1756196480661" class="icon" viewBox="0 0 1024 1024" version="1.1" xmlns="http://www.w3.org/2000/svg" p-id="8834" xmlns:xlink="http://www.w3.org/1999/xlink" width="200" height="200"><path d="M595.057765 629.150539L427.454998 1006.364447c-0.227556 0.113778-0.446984 0.219429-0.552635 0.438857-2.763174 2.438095-5.762031 4.648634-8.964062 6.639745-0.446984 0.325079-0.999619 0.552635-1.438476 0.885841a72.817766 72.817766 0 0 1-9.744253 4.762412c-0.552635 0.219429-1.10527 0.438857-1.657904 0.544508-3.323936 1.219047-6.859174 2.218666-10.402538 2.885079-0.446984 0.113778-0.999619 0.113778-1.438476 0.219429a73.906782 73.906782 0 0 1-11.068951 0.999619H178.874974c-37.514153 0-67.95783-30.3299-67.957831-67.738402 0-37.408502 30.435551-67.730275 67.949704-67.730275h177.314511l167.59464-377.205782c0.227556-0.113778 0.446984-0.227556 0.560762-0.446984 3.063873-2.681904 6.363428-5.087491 9.849903-7.19238 0.438857-0.227556 0.763936-0.552635 1.219048-0.772063 3.42146-1.999238 7.078602-3.657142 10.841395-4.989967 0.438857-0.105651 0.885841-0.325079 1.324698-0.438858a81.139797 81.139797 0 0 1 10.516316-2.543745L364.413992 628.703555a18.968378 18.968378 0 0 1-26.672758 0l-19.260949-19.155299a18.838346 18.838346 0 0 1 0-26.55898l204.637428-148.861944V310.962907l-88.502844 37.977391a38.911994 38.911994 0 0 1-47.38031-13.669586 27.615488 27.615488 0 0 1 10.4513-40.407358l131.965948-65.584752c14.726093-38.952629 52.459674-66.844434 96.507921-66.844433 30.216122 0 51.370659 6.745396 70.298401 27.550471 20.805076 18.813965 23.795806 52.354023 23.795806 82.464495v183.052162c0 18.708314-13.27949 34.312122-30.768757 38.416247h151.064357c37.514153 0 67.95783 30.313646 67.957831 67.730275 0.105651 27.550472-16.717204 51.468182-40.732438 61.870721l-85.227669 5.640126-187.489494-0.008127zM621.714268 162.539819c-44.934088 0-81.269828-36.368248-81.269828-81.269828S576.877704 0.000163 621.714268 0.000163c44.934088-0.097524 81.269828 36.270724 81.269829 81.172304C702.984097 126.082174 666.648356 162.539819 621.714268 162.539819z" fill="#ffffff" p-id="8835"></path><path d="M804.571382 536.38103a60.952371 60.952371 0 0 1 60.952371 60.952371V991.492069a32.507931 32.507931 0 0 1-32.507931 32.507931h-56.88888a32.507931 32.507931 0 0 1-32.507931-32.507931V597.333401a60.952371 60.952371 0 0 1 60.952371-60.952371z" fill="#ffffff" p-id="8836"></path></svg>