<?xml version="1.0" standalone="no"?><!DOCTYPE svg PUBLIC "-//W3C//DTD SVG 1.1//EN" "http://www.w3.org/Graphics/SVG/1.1/DTD/svg11.dtd"><svg fill="white" t="1756173273459" class="icon" viewBox="0 0 1025 1024" version="1.1" xmlns="http://www.w3.org/2000/svg" p-id="16290" xmlns:xlink="http://www.w3.org/1999/xlink" width="200.1953125" height="200"><path d="M983.823059 0c22.196706 0 40.207059 15.570824 40.207059 34.785882 0 18.944-17.468235 34.334118-39.273412 34.785883h-147.998118v182.90447c-0.542118 37.225412-19.696941 72.402824-52.525176 96.466824l-0.993883 0.722823-206.757647 148.841412 211.606589 152.304941c33.430588 24.094118 52.976941 59.602824 53.488941 97.189647v184.832h142.245647c22.196706 0 40.207059 15.570824 40.207059 34.785883 0 18.944-17.468235 34.334118-39.273412 34.785882H40.267294c-22.226824 0-40.237176-15.570824-40.237176-34.785882 0-18.944 17.468235-34.334118 39.273411-34.785883h146.341647v-184.832c0.542118-37.195294 19.666824-72.372706 52.495059-96.436706l1.024-0.752941 211.576471-152.304941-206.757647-148.841412c-33.430588-24.094118-52.976941-59.572706-53.488941-97.189647V69.571765H40.237176c-22.196706 0-40.207059-15.570824-40.207058-34.785883C0.030118 15.841882 17.498353 0.451765 39.303529 0h944.489412zM753.543529 72.884706H270.516706v180.946823c0 17.046588 8.553412 33.249882 23.401412 44.393412l0.993882 0.752941 217.118118 156.672 217.118117-156.672 0.993883-0.752941c14.637176-10.992941 23.190588-26.895059 23.401411-43.700706V72.884706z m-70.987294 97.581176v54.693647a90.352941 90.352941 0 0 1-43.12847 77.010824l-127.397647 78.125176-123.512471-77.974588a90.352941 90.352941 0 0 1-42.134588-76.40847V170.465882h336.173176z" fill="white" p-id="16291"></path></svg>
