<?xml version="1.0" standalone="no"?><!DOCTYPE svg PUBLIC "-//W3C//DTD SVG 1.1//EN" "http://www.w3.org/Graphics/SVG/1.1/DTD/svg11.dtd"><svg t="1756197924890" class="icon" viewBox="0 0 1024 1024" version="1.1" xmlns="http://www.w3.org/2000/svg" p-id="12346" xmlns:xlink="http://www.w3.org/1999/xlink" width="200" height="200"><path d="M940.464 453.956h-262.49v-257.81l268.905-84.842c10.537-3.325 16.385-14.564 13.059-25.1-3.326-10.54-14.566-16.386-25.1-13.061L138.573 324.372c-10.537 3.324-16.385 14.562-13.06 25.1 2.693 8.536 10.576 13.993 19.074 13.993 1.994 0 4.023-0.3 6.025-0.932l75.058-23.682v115.105H84.532c-11.048 0-20.007 8.87-20.007 19.92 0 127.806 39.901 245.478 112.357 331.5 81.137 96.333 197.192 147.25 335.616 147.25s254.476-50.874 335.615-147.205c72.455-86.023 112.36-203.74 112.36-331.544 0-11.05-8.959-19.921-20.009-19.921z m-302.4 0h-62.422V228.433l62.422-19.695v245.218z m-268.106 0V293.328l61.398-19.373v180h-61.398z m101.307-192.591l64.469-20.34v212.931h-64.469V261.365zM265.581 326.26l64.468-20.34v148.036h-64.468V326.26z m551.926 453.383c-73.293 87.017-178.763 132.985-305.009 132.985S280.781 866.651 207.49 779.633c-62.632-74.36-98.718-175.251-102.6-285.768h815.218c-3.885 110.517-39.97 211.417-102.601 285.778z" fill="#ffffff" p-id="12347"></path></svg>