<?xml version="1.0" standalone="no"?><!DOCTYPE svg PUBLIC "-//W3C//DTD SVG 1.1//EN" "http://www.w3.org/Graphics/SVG/1.1/DTD/svg11.dtd"><svg t="1756198086588" class="icon" viewBox="0 0 1025 1024" version="1.1" xmlns="http://www.w3.org/2000/svg" p-id="13675" xmlns:xlink="http://www.w3.org/1999/xlink" width="200.1953125" height="200"><path d="M1024.491756 705.240135c0 68.47403-43.376481 123.984492-96.883936 123.984492-53.503457 0-96.87594-55.51446-96.87594-123.984492 0-68.468033 43.370484-123.978495 96.87594-123.978495C981.115275 581.26164 1024.491756 636.772101 1024.491756 705.240135z" fill="#ffffff" p-id="13676"></path><path d="M441.22711 124.488242a48.461 62.021 0 1 0 193.747883 0 48.461 62.021 0 1 0-193.747883 0Z" fill="#ffffff" p-id="13677"></path><path d="M334.142234 639.986507l45.887236-287.109567c0 0 15.296412-91.35468 86.680998-78.305153 0 0 56.088175-13.049526 101.975411 91.35468l71.386586 137.032019c0 0 107.074881 6.524763 112.170353 71.78039 0 0 0 52.198105-25.491354 52.198105-25.493353 0-142.769173-32.621817-142.769173-32.621817l-61.183647-117.459729-35.690294 156.608308L334.142234 639.986507z" fill="#ffffff" p-id="13678"></path><path d="M742.055871 684.652348 84.294182 736.852452c0 0-25.493353 19.576288-25.493353 58.728865 0 0 5.097471 58.762848 30.592823 58.762848l311.035697 6.556747 321.22864 0 86.682997 163.097089 163.165055-39.164571c0 0 40.785766-19.582285 25.491354-65.261624-15.296412-45.67734-45.889235-32.629813-45.889235-32.629813l-91.780468 32.621817L742.055871 684.652348z" fill="#ffffff" p-id="13679"></path><path d="M699.289087 978.566539c0 9.065503-6.95455 17.419358-15.780172 17.419358L16.42785 995.985898c-8.823623 0-15.430345-8.353856-15.430345-17.419358l0-47.202583c0-9.065503 6.606722-15.416352 15.430345-15.416352l667.083064 0c8.821624 0 15.780172 6.350849 15.780172 15.416352L699.291086 978.566539 699.289087 978.566539z" fill="#ffffff" p-id="13680"></path></svg>