<?xml version="1.0" standalone="no"?><!DOCTYPE svg PUBLIC "-//W3C//DTD SVG 1.1//EN" "http://www.w3.org/Graphics/SVG/1.1/DTD/svg11.dtd"><svg t="1756196493990" class="icon" viewBox="0 0 1213 1024" version="1.1" xmlns="http://www.w3.org/2000/svg" p-id="9865" xmlns:xlink="http://www.w3.org/1999/xlink" width="236.9140625" height="200"><path d="M1213.62963 803.081481c0 21.333333-17.066667 38.4-38.4 38.4s-38.4-17.066667-38.4-38.4V105.244444c0-15.644444-12.8-28.444444-28.444445-28.444444H254.103704v-0.474074c-18.962963-2.37037-33.659259-18.488889-33.65926-37.925926s14.696296-36.02963 33.65926-37.925926V0H1156.740741c31.288889 0 56.888889 25.6 56.888889 56.888889v746.192592z" p-id="9866" fill="#ffffff"></path><path d="M28.444444 110.459259h1036.8c15.644444 0 28.444444 12.8 28.444445 28.444445v722.014815c0 15.644444-12.8 28.444444-28.444445 28.444444H28.444444c-15.644444 0-28.444444-12.8-28.444444-28.444444V138.903704c0-15.644444 12.8-28.444444 28.444444-28.444445z m62.577778 76.8c-8.059259 0-14.222222 6.162963-14.222222 14.222222v596.385186c0 8.059259 6.162963 14.222222 14.222222 14.222222h916.385185c8.059259 0 14.222222-6.162963 14.222223-14.222222V201.481481c0-8.059259-6.162963-14.222222-14.222223-14.222222H91.022222z" fill="#ffffff" p-id="9867"></path><path d="M153.125926 947.2h768c15.644444 0 28.444444 12.8 28.444444 28.444444v19.911112c0 15.644444-12.8 28.444444-28.444444 28.444444h-768c-15.644444 0-28.444444-12.8-28.444445-28.444444v-19.911112c0-15.644444 12.8-28.444444 28.444445-28.444444zM704.948148 308.622222c9.481481 16.118519 3.792593 36.503704-12.325926 45.985185l-233.244444 134.637037c-16.118519 9.481481-36.503704 3.792593-45.985185-12.325925s-3.792593-36.503704 12.325926-45.985186L658.962963 296.296296c16.118519-9.007407 36.503704-3.318519 45.985185 12.325926z m-46.459259 210.014815c9.481481 16.118519 3.792593 36.503704-12.325926 45.985185l-233.244444 134.637037c-16.118519 9.481481-36.503704 3.792593-45.985186-12.325926-9.481481-16.118519-3.792593-36.503704 12.325926-45.985185l233.244445-134.637037c16.118519-9.481481 36.977778-3.792593 45.985185 12.325926z" p-id="9868" fill="#ffffff"></path></svg>