<?xml version="1.0" standalone="no"?><!DOCTYPE svg PUBLIC "-//W3C//DTD SVG 1.1//EN" "http://www.w3.org/Graphics/SVG/1.1/DTD/svg11.dtd"><svg t="1756196461822" class="icon" viewBox="0 0 1024 1024" version="1.1" xmlns="http://www.w3.org/2000/svg" p-id="7444" xmlns:xlink="http://www.w3.org/1999/xlink" width="200" height="200"><path d="M513.706667 14.222222A316.871111 316.871111 0 0 1 810.666667 221.013333a113.777778 113.777778 0 0 1 0 218.737778 316.728889 316.728889 0 0 1-594.346667 0 113.777778 113.777778 0 0 1 0-218.737778A316.586667 316.586667 0 0 1 513.706667 14.222222z m0 52.764445a263.964444 263.964444 0 0 0-251.733334 184.888889A26.311111 26.311111 0 0 1 240.782222 270.222222a61.582222 61.582222 0 0 0 0 121.742222 26.168889 26.168889 0 0 1 21.191111 18.204445 263.822222 263.822222 0 0 0 503.466667 0 26.453333 26.453333 0 0 1 21.333333-18.204445 61.582222 61.582222 0 0 0 0-121.742222 26.737778 26.737778 0 0 1-21.333333-18.204444 263.537778 263.537778 0 0 0-106.097778-140.942222c-14.222222 56.888889-63.857778 82.062222-140.8 70.257777A26.453333 26.453333 0 0 1 526.222222 128c56.888889 8.817778 80.64-4.124444 83.626667-43.662222a263.253333 263.253333 0 0 0-96.142222-17.777778zM408.177778 256.711111a35.128889 35.128889 0 0 1 35.271111 35.128889V327.111111a35.271111 35.271111 0 1 1-70.4 0v-35.271111a35.128889 35.128889 0 0 1 35.128889-35.128889z m211.057778 0A35.128889 35.128889 0 0 1 654.222222 291.84V327.111111a35.271111 35.271111 0 0 1-71.111111 0v-35.271111a35.128889 35.128889 0 0 1 35.128889-35.128889zM967.822222 884.053333c-50.915556 53.048889-100.977778 79.217778-148.337778 77.368889-34.702222-1.28-56.888889-16.924444-82.773333-34.986666-28.444444-20.195556-61.155556-42.666667-112.497778-44.231112S540.444444 904.675556 512 925.44s-48.071111 35.84-85.333333 30.577778A190.151111 190.151111 0 0 1 350.293333 924.444444a245.048889 245.048889 0 0 0-92.871111-38.826666c-71.111111-11.804444-150.186667 14.222222-233.671111 78.222222a24.32 24.32 0 1 0 29.582222 38.684444c72.248889-55.182222 138.24-78.364444 196.124445-68.835555a200.96 200.96 0 0 1 75.52 32.284444 235.946667 235.946667 0 0 0 94.577778 38.542223c56.888889 8.106667 91.591111-17.208889 121.884444-39.537778 25.031111-18.631111 46.222222-34.702222 81.635556-33.706667s59.306667 16.782222 85.333333 35.271111S768 1008.355556 817.777778 1009.777778h6.257778c59.875556 0 120.035556-31.146667 178.915555-92.444445a24.177778 24.177778 0 0 0 0-34.417777 24.462222 24.462222 0 0 0-34.417778 0z" fill="#ffffff" p-id="7445"></path><path d="M967.822222 699.164444c-50.915556 53.048889-100.977778 79.217778-148.337778 77.368889-34.702222-1.28-56.888889-16.924444-82.773333-34.986666-28.444444-20.195556-61.155556-42.666667-112.497778-44.231111S540.444444 719.786667 512 740.551111s-48.071111 35.84-85.333333 30.577778A190.151111 190.151111 0 0 1 350.293333 739.555556a245.048889 245.048889 0 0 0-92.871111-38.826667c-71.111111-11.804444-150.186667 14.222222-233.671111 78.222222a24.32 24.32 0 1 0 29.582222 38.684445c72.248889-55.182222 138.24-78.364444 196.124445-68.835556a200.96 200.96 0 0 1 75.52 32.284444 235.946667 235.946667 0 0 0 94.577778 38.542223c56.888889 8.106667 91.591111-17.208889 121.884444-39.537778 25.031111-18.631111 46.222222-34.702222 81.635556-33.706667s59.306667 16.782222 85.333333 35.271111S768 823.466667 817.777778 824.888889h6.257778c59.875556 0 120.035556-31.146667 178.915555-92.444445a24.177778 24.177778 0 0 0 0-34.417777 24.462222 24.462222 0 0 0-34.417778 0z" fill="#ffffff" p-id="7446"></path></svg>